<?xml version="1.0" encoding="utf-8"?>
<!-- Generator: Adobe Illustrator 15.1.0, SVG Export Plug-In . SVG Version: 6.00 Build 0)  -->
<!DOCTYPE svg PUBLIC "-//W3C//DTD SVG 1.1//EN" "http://www.w3.org/Graphics/SVG/1.1/DTD/svg11.dtd">
<svg version="1.1" id="Layer_1" xmlns="http://www.w3.org/2000/svg" xmlns:xlink="http://www.w3.org/1999/xlink" x="0px" y="0px"
	 width="56.69px" height="56.69px" viewBox="0 0 56.69 56.69" enable-background="new 0 0 56.69 56.69" xml:space="preserve">
<path d="M47.748,5.097C46.525,3.874,44.899,3.2,43.17,3.2s-3.355,0.673-4.579,1.896l-6.262,6.262l-0.81-0.809
	c-1.446-1.447-3.972-1.45-5.426,0c-1.492,1.496-1.492,3.928,0.001,5.423l0.828,0.828l-13.77,13.771V30.57l-1.789,6.674l-0.562,2.096
	l-3.487,3.488c-0.352,0.352-0.353,0.924,0,1.277L9.39,46.18c0.177,0.177,0.408,0.266,0.64,0.266s0.462-0.088,0.639-0.264
	l3.488-3.488l2.094-0.561l6.676-1.789l-0.002-0.002l13.769-13.77l0.687,0.687c0.725,0.723,1.688,1.121,2.712,1.121
	s1.986-0.398,2.711-1.122c0.725-0.725,1.124-1.688,1.124-2.712c0-1.025-0.399-1.988-1.124-2.712l-1.317-1.317l6.263-6.263
	C50.271,11.729,50.271,7.621,47.748,5.097z M33.262,27.176l-19.486,8.792l1.169-4.359l13.343-13.342l4.64,4.541l2.352,2.352
	L33.262,27.176z M46.334,12.84l-6.791,6.785c-0.055,0.042-0.108,0.083-0.16,0.13l-0.781,0.705l2.787,2.788
	c0.347,0.347,0.538,0.808,0.538,1.298s-0.191,0.951-0.538,1.298c-0.692,0.692-1.903,0.69-2.596,0l-0.686-0.686l0.041-0.041
	l-3.823-3.741l-6.816-6.816c-0.715-0.716-0.715-1.881-0.001-2.596c0.347-0.347,0.809-0.538,1.299-0.538
	c0.491,0,0.952,0.19,1.298,0.537l2.282,2.282l0.705-0.787c0.045-0.05,0.086-0.103,0.127-0.163l6.785-6.786
	C40.851,5.666,41.975,5.2,43.17,5.2s2.319,0.465,3.164,1.311C48.077,8.255,48.077,11.095,46.334,12.84z M11.181,51.801l0.009,0.018
	h-0.01c-0.014,0.926-0.766,1.672-1.693,1.672c-0.93,0-1.681-0.746-1.693-1.672H7.782l0.01-0.018c0,0-0.001-0.002-0.001-0.004
	c0-0.598,1.267-3.117,1.696-3.109s1.695,2.512,1.695,3.109C11.182,51.799,11.181,51.801,11.181,51.801z"/>
</svg>
