<?xml version="1.0" encoding="utf-8"?>
<!-- Generator: Adobe Illustrator 15.1.0, SVG Export Plug-In . SVG Version: 6.00 Build 0)  -->
<!DOCTYPE svg PUBLIC "-//W3C//DTD SVG 1.1//EN" "http://www.w3.org/Graphics/SVG/1.1/DTD/svg11.dtd">
<svg version="1.1" id="Layer_1" xmlns="http://www.w3.org/2000/svg" xmlns:xlink="http://www.w3.org/1999/xlink" x="0px" y="0px"
	 width="56.69px" height="56.69px" viewBox="0 0 56.69 56.69" enable-background="new 0 0 56.69 56.69" xml:space="preserve">
<path d="M53.272,9.761c-1.225-1.221-2.847-1.892-4.57-1.892c-0.729,0-1.437,0.126-2.105,0.357c-0.967-1.217-2.439-2.01-4.116-2.01
	H8.843c-2.935,0-5.312,2.378-5.312,5.312v33.636c0,2.934,2.377,5.311,5.312,5.311H42.48c2.933,0,5.312-2.377,5.312-5.311V24.366
	l5.479-5.478C55.784,16.373,55.785,12.279,53.272,9.761z M45.792,26.366v18.798c0,1.825-1.485,3.311-3.312,3.311H8.843
	c-1.826,0-3.312-1.485-3.312-3.311V11.528c0-1.826,1.485-3.312,3.312-3.312H42.48c0.899,0,1.724,0.36,2.323,0.967
	c-0.01,0.007-0.019,0.017-0.028,0.024c-0.222,0.171-0.438,0.352-0.639,0.553L29.143,24.755l-6.616-6.615
	c-0.911-0.914-2.051-1.521-3.292-1.768c0,0,0,0,0,0c-0.065-0.013-0.132-0.018-0.198-0.029c-0.351-0.059-0.708-0.095-1.071-0.095l0,0
	c0,0,0,0,0,0c-0.363,0-0.72,0.036-1.071,0.095c-1.316,0.219-2.53,0.834-3.489,1.795c0,0-0.001,0.001-0.002,0.002
	c0,0.001-0.001,0.001-0.002,0.002c-1.066,1.062-1.714,2.436-1.86,3.919c-0.021,0.212-0.031,0.426-0.031,0.642
	c0,0.431,0.042,0.856,0.124,1.27c0.247,1.241,0.854,2.381,1.77,3.294l11.318,11.293l0.028,0.027l0.029,0.027
	c1.198,1.104,2.754,1.712,4.383,1.712c0.215,0,0.428-0.011,0.638-0.031c1.476-0.144,2.845-0.786,3.908-1.846l0.04-0.04
	L45.792,26.366z M51.856,17.474l-4.064,4.064l0,0L32.296,37.033c-0.868,0.863-2.001,1.294-3.135,1.294
	c-1.086,0-2.173-0.396-3.027-1.183L14.815,25.852c-1.742-1.736-1.742-4.56,0-6.296c0.869-0.871,2.009-1.306,3.149-1.306
	c1.14,0,2.279,0.436,3.147,1.306l8.03,8.029l16.408-16.41c0.183-0.183,0.383-0.335,0.587-0.479c0.087-0.061,0.176-0.12,0.267-0.173
	c0.097-0.059,0.198-0.106,0.298-0.157c0.275-0.135,0.56-0.248,0.852-0.326l0,0c0.377-0.101,0.761-0.169,1.148-0.169
	c1.141,0,2.282,0.435,3.154,1.305C53.593,12.914,53.593,15.737,51.856,17.474z"/>
</svg>
